<svg width="20" height="20" viewBox="0 0 20 20" fill="none" xmlns="http://www.w3.org/2000/svg">
<path d="M7.11678 1H3.05078C1.94621 1 1.05078 1.89543 1.05078 3V9.083C1.05078 10.1876 1.94621 11.083 3.05078 11.083H7.11678C8.22135 11.083 9.11678 10.1876 9.11678 9.083V3C9.11678 1.89543 8.22135 1 7.11678 1Z" stroke="#17AE4B" stroke-width="1.5"/>
<path d="M17.1988 9.06641H13.1328C12.0282 9.06641 11.1328 9.96184 11.1328 11.0664V17.1494C11.1328 18.254 12.0282 19.1494 13.1328 19.1494H17.1988C18.3034 19.1494 19.1988 18.254 19.1988 17.1494V11.0664C19.1988 9.96184 18.3034 9.06641 17.1988 9.06641Z" stroke="#8F4199" stroke-width="1.5"/>
<path d="M19.1133 5.386V3C19.1133 1.89543 18.2179 1 17.1133 1L13.1313 1C12.0267 1 11.1313 1.89543 11.1313 3V5.386C11.1313 6.49057 12.0267 7.386 13.1313 7.386H17.1133C18.2179 7.386 19.1133 6.49057 19.1133 5.386Z" stroke="#EE518B" stroke-width="1.5"/>
<path d="M8.98047 17.1487V14.7627C8.98047 13.6581 8.08504 12.7627 6.98047 12.7627H2.99847C1.8939 12.7627 0.998469 13.6581 0.998469 14.7627V17.1487C0.998469 18.2533 1.8939 19.1487 2.99847 19.1487H6.98047C8.08504 19.1487 8.98047 18.2533 8.98047 17.1487Z" stroke="#1F4393" stroke-width="1.5"/>
</svg>
