 <svg
              width="21"
              height="21"
              viewBox="0 0 21 21"
              fill="none"
              xmlns="http://www.w3.org/2000/svg"
            >
              <path
                d="M10.2753 20.2319C7.97665 18.7349 5.85365 16.9843 3.94625 15.0129C2.576 13.5714 1.54252 11.8439 0.920254 9.95488C-0.221746 6.22888 1.10225 1.96988 4.80025 0.70188C5.76442 0.385593 6.79279 0.317647 7.79018 0.50433C8.78757 0.691014 9.72175 1.12629 10.5063 1.76988C11.2912 1.12704 12.2253 0.692227 13.2226 0.505573C14.2198 0.318919 15.248 0.386431 16.2123 0.70188C19.9123 1.96588 21.2433 6.22488 20.1053 9.95188C19.4865 11.8393 18.4575 13.5663 17.0923 15.0089C15.183 16.9782 13.0602 18.7287 10.7633 20.2279L10.5153 20.4019L10.2753 20.2319Z"
                fill="#FFAFBD"
              />
              <path
                d="M10.5112 20.4018L10.2762 20.2308C7.97474 18.734 5.84874 16.9834 3.9382 15.0118C2.55996 13.5729 1.51884 11.8456 0.890199 9.95483C-0.238801 6.22783 1.0852 1.96983 4.7832 0.701835C5.75128 0.383989 6.784 0.315963 7.78541 0.504078C8.78682 0.692193 9.72445 1.13034 10.5112 1.77783V20.4018Z"
                fill="#EB3352"
              />
              <path
                d="M16.874 7.64085C16.7753 7.63313 16.6794 7.60399 16.593 7.55547C16.5067 7.50694 16.4319 7.44019 16.374 7.35985C16.2475 7.1869 16.19 6.97292 16.213 6.75985C16.2321 6.4268 16.1513 6.09563 15.981 5.80879C15.8107 5.52195 15.5586 5.2925 15.257 5.14985C15.0677 5.08293 14.9105 4.94727 14.8165 4.76979C14.7226 4.59232 14.6989 4.38602 14.75 4.19185C14.7642 4.0981 14.7974 4.00823 14.8474 3.92767C14.8974 3.84712 14.9633 3.77757 15.041 3.72323C15.1187 3.6689 15.2066 3.63093 15.2995 3.61161C15.3923 3.59229 15.4881 3.59203 15.581 3.61085C15.6285 3.61938 15.6737 3.63741 15.714 3.66385C16.3191 3.93838 16.8255 4.39166 17.1652 4.9627C17.5049 5.53374 17.6615 6.19512 17.614 6.85785C17.6141 7.06769 17.5356 7.26996 17.394 7.42485C17.3285 7.49681 17.248 7.55346 17.1581 7.5908C17.0682 7.62813 16.9712 7.64521 16.874 7.64085Z"
                fill="#EB3352"
              />
            </svg>