 <svg
              width="21"
              height="14"
              viewBox="0 0 21 14"
              fill="none"
              xmlns="http://www.w3.org/2000/svg"
            >
              <path
                d="M12.6456 13.8912C10.6041 13.8923 8.56322 13.894 6.52176 13.8946C6.49448 13.8946 6.46721 13.8873 6.43994 13.8834C6.43994 13.8617 6.43994 13.8406 6.43994 13.8189C6.51452 13.7426 6.48001 13.6475 6.48001 13.5612C6.48224 10.8986 6.48168 8.23656 6.48224 5.57397C6.54346 5.6224 6.56572 5.70977 6.64531 5.73983C6.64531 5.80161 6.68038 5.84001 6.72713 5.87118C6.75328 5.92739 6.77276 5.98694 6.80616 6.0387C7.25976 6.7422 7.71725 7.44235 8.16695 8.14807C8.24376 8.26829 8.3406 8.27998 8.46415 8.27998C10.455 8.27831 12.4458 8.27942 14.4366 8.27998C14.4388 9.34913 14.4411 10.4183 14.4433 11.4869C14.4377 11.4997 14.4377 11.5119 14.4433 11.5247C14.4383 12.3034 14.4338 13.0814 14.4288 13.8601C13.9001 13.8601 13.3714 13.8584 12.8432 13.8595C12.7764 13.8595 12.7046 13.8395 12.6456 13.8912Z"
                fill="#DE990E"
              />
              <path
                d="M17.98 4.06519C18.4308 4.06519 18.8816 4.06853 19.3319 4.06352C19.4527 4.06241 19.5106 4.07966 19.5284 4.22437C19.7003 5.61911 19.8829 7.0133 20.0616 8.40693C20.1929 9.42989 20.3231 10.4534 20.4539 11.4769C18.6696 11.478 16.8858 11.4797 15.1015 11.4808C15.1015 10.7389 15.1043 9.99702 15.0998 9.25457C15.0987 9.07369 15.1644 8.97017 15.3486 8.93455C15.4376 8.91729 15.5245 8.90227 15.6146 8.90283C16.017 8.90394 16.4189 8.90394 16.8213 8.90283C17.1263 8.90171 17.2743 8.65404 17.1079 8.39691C16.3832 7.27711 15.6508 6.16232 14.92 5.04697C14.8354 4.9184 14.7236 4.84716 14.5549 4.86052C14.369 4.87499 14.1809 4.86275 13.9934 4.86163L13.9917 4.0702C15.1516 4.06853 16.3114 4.06686 17.4713 4.06519L17.4769 5.54954C17.1596 5.71206 17.0222 5.98533 17.1007 6.29701C17.1719 6.5803 17.4312 6.78177 17.7257 6.78177C18.0212 6.78177 18.2794 6.58141 18.3507 6.29701C18.4286 5.98589 18.2895 5.70928 17.9745 5.54954C17.9761 5.05476 17.9783 4.55998 17.98 4.06519Z"
                fill="#3EACFF"
              />
              <path
                d="M6.44054 13.819C6.44054 13.8407 6.44054 13.8618 6.44054 13.8835C5.92127 13.8874 5.40144 13.8941 4.88217 13.8952C4.09185 13.8974 3.30154 13.8902 2.51178 13.8997C2.32755 13.9019 2.268 13.8607 2.26856 13.6642C2.27691 11.8693 2.27357 10.0739 2.27357 8.27894C3.00211 8.27894 3.73065 8.27728 4.45918 8.28006C4.57717 8.28006 4.66622 8.26392 4.73858 8.14982C5.09199 7.59493 5.45209 7.04505 5.81441 6.49628C6.01923 6.18572 6.23183 5.88017 6.44054 5.57239C6.44054 8.32124 6.44054 11.0707 6.44054 13.8195V13.819Z"
                fill="#FBB71D"
              />
              <path
                d="M14.4362 8.28005C12.4454 8.28005 10.4546 8.27838 8.46376 8.28005C8.3402 8.28005 8.2428 8.26836 8.16656 8.14815C7.71685 7.44243 7.2588 6.74227 6.80576 6.03878C6.77237 5.98757 6.75289 5.92747 6.72673 5.87125C6.73118 5.80781 6.73898 5.74213 6.64492 5.74046V5.73991C6.63212 5.6592 6.61931 5.5785 6.60596 5.4978C7.62502 5.49502 8.64353 5.49279 9.66259 5.49001C10.3694 5.48834 11.0763 5.48611 11.7836 5.48389C12.3591 5.48389 12.9346 5.48389 13.5101 5.48389C13.6676 5.48389 13.8251 5.48389 13.9826 5.48389C14.0795 5.48667 14.1769 5.49724 14.2726 5.48945C14.3895 5.47999 14.4602 5.52229 14.5247 5.62303C15.0685 6.4651 15.6184 7.30329 16.1655 8.14369C16.1888 8.17987 16.2395 8.21382 16.1927 8.28061H14.4362V8.28005Z"
                fill="#FED583"
              />
              <path
                d="M20.4618 11.5293C20.6098 12.4103 20.3238 13.1088 19.5758 13.6052C19.3047 13.785 18.9969 13.8852 18.6752 13.8874C17.4842 13.8958 16.2926 13.888 15.1016 13.8863C15.1016 13.0999 15.1016 12.3135 15.1016 11.5276L20.4612 11.5293H20.4618Z"
                fill="#275F8B"
              />
              <path
                d="M6.60675 5.49782C6.61955 5.57852 6.63235 5.65922 6.64571 5.73992C6.56612 5.70931 6.54386 5.62249 6.48264 5.57351C6.46983 5.54457 6.45592 5.54011 6.44034 5.57128C6.23163 5.87906 6.01902 6.18461 5.81421 6.49517C5.45244 7.0445 5.09179 7.59438 4.73837 8.14872C4.66602 8.26226 4.57641 8.27895 4.45898 8.27895C3.73044 8.27617 3.0019 8.27784 2.27336 8.27784C1.73294 8.27728 1.19308 8.27784 0.652656 8.2745C0.602009 8.2745 0.532439 8.30511 0.504611 8.24055C0.484018 8.19324 0.530769 8.1515 0.556371 8.11198C1.10124 7.27826 1.64779 6.44508 2.1921 5.6108C2.24053 5.53622 2.29229 5.48724 2.38968 5.4878C3.79556 5.49225 5.20143 5.49448 6.60675 5.4967V5.49782Z"
                fill="#FED583"
              />
              <path
                d="M13.9836 5.48385C13.8261 5.48385 13.6686 5.48385 13.5111 5.48385C13.506 5.2757 13.5311 5.06699 13.4966 4.85995C13.5211 4.59836 13.5177 4.33622 13.4988 4.07408C13.5016 4.06908 13.5072 4.06407 13.5066 4.06017C13.5049 4.05015 13.5005 4.04013 13.4971 4.03012C13.5027 3.68394 13.4988 3.3372 13.5149 2.99102C13.5662 1.88847 14.4889 0.954002 15.5664 0.905024C16.7781 0.849925 17.7765 1.6497 17.9407 2.79845C18.0008 3.21976 17.9474 3.64331 17.9802 4.06462C17.9786 4.55941 17.9763 5.05419 17.9747 5.54897C17.8027 5.80221 17.6513 5.80221 17.4777 5.54897C17.476 5.05419 17.4738 4.55941 17.4721 4.06462C17.4743 3.73236 17.4849 3.40009 17.4771 3.06838C17.4565 2.15896 16.743 1.44322 15.8058 1.38144C14.9453 1.32523 14.1394 1.99088 14.0136 2.86746C13.9563 3.26651 13.988 3.66835 13.9925 4.06963C13.9925 4.33344 13.9936 4.59725 13.9941 4.86106C13.9908 5.06866 13.9875 5.27626 13.9836 5.4833V5.48385Z"
                fill="#09408A"
              />
              <path
                d="M15.102 11.5276C15.102 12.314 15.102 13.1004 15.102 13.8863C14.8939 13.8863 14.6851 13.8874 14.477 13.8879C14.467 13.8779 14.457 13.8673 14.4464 13.8573L14.4297 13.8601C14.4347 13.0815 14.4391 12.3034 14.4442 11.5248C14.6634 11.5259 14.8833 11.5265 15.1026 11.5276H15.102Z"
                fill="#054291"
              />
              <path
                d="M13.4985 4.07462C13.5175 4.33676 13.5208 4.59835 13.4963 4.86049C12.9548 4.8616 12.4127 4.86327 11.8706 4.86438C11.8951 4.65233 11.9229 4.44084 11.9418 4.22823C11.9519 4.11302 11.9914 4.06071 12.1199 4.06293C12.5685 4.07184 13.0171 4.06794 13.4657 4.06906C13.4768 4.07073 13.4874 4.07295 13.4985 4.07462Z"
                fill="#3EACFF"
              />
              <path
                d="M11.8715 4.86388C12.4136 4.86277 12.9551 4.8611 13.4972 4.85999C13.5317 5.06703 13.5067 5.27574 13.5111 5.48389C12.9356 5.48389 12.3602 5.48389 11.7847 5.48389C11.8136 5.27741 11.8426 5.07037 11.8715 4.86388Z"
                fill="#3EACFF"
              />
              <path
                d="M15.102 11.5275C14.8828 11.5264 14.6629 11.5258 14.4436 11.5247C14.4381 11.5119 14.4381 11.4991 14.4436 11.4869C14.6629 11.4847 14.8822 11.483 15.102 11.4813C16.8864 11.4802 18.6702 11.4785 20.4545 11.4774C20.4573 11.4947 20.4595 11.5125 20.4623 11.5297C18.6757 11.5292 16.8892 11.5286 15.1026 11.5281L15.102 11.5275Z"
                fill="#2677B9"
              />
              <path
                d="M12.6456 13.8913C12.7046 13.8401 12.7764 13.8602 12.8432 13.8596C13.3719 13.8585 13.9006 13.8596 14.4288 13.8602L14.4455 13.8574C14.4405 13.8691 14.4377 13.8813 14.4383 13.8941C13.8405 13.893 13.2428 13.8919 12.645 13.8913H12.6456Z"
                fill="#FCD529"
              />
              <path
                d="M13.4987 4.07461C13.4875 4.07238 13.477 4.07071 13.4658 4.06904C13.4758 4.05624 13.4864 4.04344 13.497 4.03064C13.5003 4.04066 13.5053 4.05012 13.5064 4.06069C13.507 4.06515 13.5014 4.07016 13.4987 4.07461Z"
                fill="#3EACFF"
              />
              <path
                d="M14.4386 13.894C14.438 13.8812 14.4402 13.869 14.4458 13.8573C14.4558 13.8673 14.4658 13.8779 14.4764 13.8879L14.458 13.8946H14.4386V13.894Z"
                fill="#275F8B"
              />
              <path
                d="M15.1016 11.4814C14.8823 11.4831 14.663 11.4853 14.4432 11.487C14.441 10.4178 14.4387 9.34866 14.4365 8.28006C15.0242 8.28006 15.6125 8.28006 16.193 8.28006C16.2398 8.21328 16.1897 8.17988 16.1657 8.14315C15.6186 7.3033 15.0688 6.46512 14.525 5.62248C14.4599 5.52175 14.3898 5.48 14.2729 5.48891C14.1772 5.4967 14.0798 5.48613 13.9829 5.48334C13.9862 5.27575 13.9896 5.06815 13.9935 4.86111C14.181 4.86166 14.3692 4.87446 14.5551 4.85999C14.7237 4.84664 14.8361 4.91788 14.9202 5.04644C15.6515 6.16179 16.3834 7.27658 17.108 8.39638C17.2744 8.65352 17.1264 8.90119 16.8214 8.9023C16.419 8.90341 16.0171 8.90285 15.6147 8.9023C15.5246 8.9023 15.4378 8.91677 15.3487 8.93402C15.1645 8.9702 15.0988 9.07316 15.0999 9.25405C15.1044 9.99594 15.1016 10.7378 15.1016 11.4803V11.4814Z"
                fill="#1F4393"
              />
              <path
                d="M6.43994 5.5724C6.45553 5.54123 6.46944 5.54568 6.48224 5.57463C6.48224 8.23722 6.48224 10.8998 6.48001 13.5618C6.48001 13.6481 6.51452 13.7433 6.43994 13.8195C6.43994 11.0707 6.43994 8.32181 6.43994 5.5724Z"
                fill="#FCD529"
              />
              <path
                d="M6.64503 5.74097C6.73908 5.74264 6.73129 5.80831 6.72684 5.87176C6.68009 5.84059 6.64447 5.80163 6.64503 5.74097Z"
                fill="#FED583"
              />
            </svg>