 <svg
              width="25"
              height="26"
              viewBox="0 0 25 26"
              fill="none"
              xmlns="http://www.w3.org/2000/svg"
            >
              <path
                d="M18.715 0.966431C19.0936 1.05107 19.4761 1.12049 19.849 1.22225C22.962 2.07055 25.1312 5.00918 24.9933 8.18366C24.8477 11.5369 22.4587 14.2911 19.1992 14.8607C15.1481 15.5683 11.3625 12.642 11.0238 8.54124C10.7174 4.83039 13.3452 1.5475 17.0329 1.033C17.0947 1.02444 17.167 1.03966 17.2051 0.967381C17.7084 0.967381 18.2117 0.967381 18.714 0.967381L18.715 0.966431Z"
                fill="#275F8B"
              />
              <path
                d="M5.21741 22.3664C4.02941 22.3634 2.84141 22.3599 1.654 22.3575C1.44251 22.3575 1.23398 22.3386 1.03253 22.2689C-0.0633124 21.8902 -0.364005 20.4789 0.5044 19.711C1.48977 18.839 2.16855 17.7898 2.46392 16.502C2.56435 16.0642 2.61161 15.62 2.61043 15.1699C2.60866 14.396 2.60866 13.6221 2.61043 12.8476C2.61515 9.8903 4.59831 7.44105 7.49181 6.82726C8.29877 6.65594 9.10751 6.67012 9.91684 6.83317C10.0675 6.86329 10.0633 6.90878 10.0173 7.03107C9.2044 9.17963 9.46315 11.1929 10.8479 13.0278C11.7665 14.2447 13.0082 14.9861 14.5082 15.2744C14.7208 15.3152 14.7894 15.3819 14.8059 15.6111C14.9176 17.1441 15.5313 18.4485 16.6626 19.4959C16.9875 19.7966 17.2888 20.1003 17.3615 20.5599C17.5157 21.5346 16.8233 22.3481 15.822 22.3552C14.6883 22.3628 13.5541 22.3569 12.4204 22.3575C12.3389 22.3575 12.258 22.3617 12.1765 22.364C9.85718 22.3646 7.53789 22.3658 5.2186 22.3664H5.21741Z"
                fill="#3EACFF"
              />
              <path
                d="M5.21826 22.3666C7.53755 22.366 9.85684 22.3648 12.1761 22.3643C12.1106 24.1022 11.0106 25.4244 9.34348 25.7688C7.4324 26.1634 5.49119 24.7698 5.25548 22.8327C5.23658 22.6785 5.23067 22.522 5.21826 22.3672V22.3666Z"
                fill="#275F8B"
              />
              <path
                d="M19.5355 6.21043C19.4475 5.84243 19.2875 5.56643 19.0555 5.38243C18.8235 5.19843 18.4995 5.10643 18.0835 5.10643C17.4515 5.10643 16.9795 5.35043 16.6675 5.83843C16.3555 6.31843 16.1915 7.11843 16.1755 8.23843C16.3835 7.88643 16.6875 7.61443 17.0875 7.42243C17.4875 7.23043 17.9195 7.13443 18.3835 7.13443C18.9115 7.13443 19.3755 7.25043 19.7755 7.48243C20.1835 7.70643 20.4995 8.03443 20.7235 8.46643C20.9555 8.89843 21.0715 9.41443 21.0715 10.0144C21.0715 10.5744 20.9595 11.0744 20.7355 11.5144C20.5195 11.9544 20.1955 12.3024 19.7635 12.5584C19.3315 12.8064 18.8115 12.9304 18.2035 12.9304C17.3795 12.9304 16.7315 12.7504 16.2595 12.3904C15.7955 12.0224 15.4675 11.5064 15.2755 10.8424C15.0915 10.1784 14.9995 9.35043 14.9995 8.35843C14.9995 5.43043 16.0315 3.96643 18.0955 3.96643C18.8955 3.96643 19.5235 4.18243 19.9795 4.61443C20.4435 5.04643 20.7155 5.57843 20.7955 6.21043H19.5355ZM18.0835 8.28643C17.5955 8.28643 17.1795 8.43443 16.8355 8.73043C16.4995 9.01843 16.3315 9.43843 16.3315 9.99043C16.3315 10.5424 16.4875 10.9824 16.7995 11.3104C17.1195 11.6304 17.5635 11.7904 18.1315 11.7904C18.6355 11.7904 19.0315 11.6344 19.3195 11.3224C19.6155 11.0104 19.7635 10.5944 19.7635 10.0744C19.7635 9.53043 19.6195 9.09843 19.3315 8.77843C19.0515 8.45043 18.6355 8.28643 18.0835 8.28643Z"
                fill="white"
              />
            </svg>